# xmcd
#
# Track frame offsets:
#	187
#	26700
#	44300
#	67662
#	91225
#	114575
#	138975
#	161150
#	187487
#
# Disc length: 2765 seconds
#
# Revision: 2
# Processed by: cddbd v1.5.2PL0 Copyright (c) Steve Scherf et al.
# Submitted via: EZCDAudioConverter 3.1.2.1
#
DISCID=7a0acb09
DTITLE=СВ - Я Знаю
DYEAR=1900
DGENRE=blues
TTITLE0=Я Знаю
TTITLE1=	Началось Уже
TTITLE2=Бег
TTITLE3=Звон
TTITLE4=Русская
TTITLE5=Пили И Курили
TTITLE6=Чёлочки, Косички
TTITLE7=Уйти Из Дома
TTITLE8=	Интернационал
EXTD=
EXTT0=
EXTT1=
EXTT2=
EXTT3=
EXTT4=
EXTT5=
EXTT6=
EXTT7=
EXTT8=
PLAYORDER=
